<svg id="Capa_1" fill="white" enable-background="new 0 0 511.883 511.883" height="512" viewBox="0 0 511.883 511.883" width="512" xmlns="http://www.w3.org/2000/svg"><g><path d="m511.883 148.305-126.977 45.249 7.559 15.117c10.759 21.546.39 48.153-27.466 55.898-.352.117-38.936 10.474-50.654-24.624l-11.294-33.926 32.139-32.153-79.307-118.945-79.307 118.945 32.139 32.153-11.294 33.926c-7.31 21.899-22.998 29.282-50.801 23.994-3.036-1.479-18.891-2.166-27.861-21.694-4.951-10.752-4.746-22.983.542-33.574l7.544-15.103-126.845-45.278 56.593 218.672h133.079l66.211-66.211 66.211 66.211h133.109z"/><path d="m228.455 354.534h54.856v54.856h-54.856z" transform="matrix(.707 -.707 .707 .707 -195.142 292.811)"/><path d="m189.672 396.962h-128.789v60h188.789z"/><path d="m450.883 396.962h-128.789l-60 60h188.789z"/></g></svg>