<?xml version="1.0" standalone="no"?>
<!DOCTYPE svg PUBLIC "-//W3C//DTD SVG 20010904//EN"
 "http://www.w3.org/TR/2001/REC-SVG-20010904/DTD/svg10.dtd">
<svg version="1.0" xmlns="http://www.w3.org/2000/svg"
 width="512.000000pt" height="512.000000pt" viewBox="0 0 512.000000 512.000000"
 preserveAspectRatio="xMidYMid meet">

<g transform="translate(0.000000,512.000000) scale(0.100000,-0.100000)"
fill="white" stroke="none">
<path d="M463 3870 c-18 -10 -39 -30 -48 -44 -10 -14 -107 -360 -217 -768
-151 -566 -198 -752 -194 -782 5 -42 28 -79 67 -108 31 -23 421 -128 475 -128
48 0 100 31 125 75 9 17 106 362 214 768 208 780 208 781 167 836 -35 48 -70
62 -272 116 -224 60 -269 65 -317 35z"/>
<path d="M4335 3834 c-110 -29 -211 -62 -225 -72 -38 -29 -70 -81 -70 -117 0
-28 86 -357 329 -1262 38 -139 76 -264 85 -278 25 -38 75 -65 122 -65 54 0
442 104 473 128 39 29 62 66 67 108 4 30 -43 218 -195 782 -110 409 -207 754
-216 768 -25 39 -74 64 -125 63 -25 0 -135 -25 -245 -55z"/>
<path d="M2317 3774 c-43 -8 -122 -28 -175 -45 -320 -103 -492 -274 -492 -490
0 -75 -17 -142 -60 -245 -50 -118 -51 -154 -2 -168 27 -7 49 -5 103 13 111 36
169 97 260 273 87 168 163 255 264 303 83 39 171 41 236 4 61 -34 1209 -1000
1279 -1075 30 -33 71 -89 90 -124 33 -61 35 -71 35 -157 0 -70 3 -93 13 -93
42 0 169 38 242 71 96 45 209 126 210 150 0 30 -312 1184 -324 1195 -6 6 -58
27 -116 47 -58 19 -201 69 -318 111 -257 91 -412 138 -581 176 -263 60 -525
81 -664 54z"/>
<path d="M1392 3470 c-144 -42 -266 -80 -271 -86 -15 -16 -313 -1146 -304
-1153 29 -26 1482 -966 1516 -981 48 -22 121 -26 157 -7 23 12 70 71 70 88 0
4 -94 89 -210 189 -115 99 -214 189 -219 199 -13 23 12 61 39 61 11 0 121 -87
245 -194 237 -204 273 -226 359 -226 74 1 168 57 202 122 34 65 34 66 -243
318 -179 162 -259 241 -261 257 -4 29 14 53 39 53 10 0 138 -109 285 -242 146
-134 273 -247 281 -252 9 -4 52 -10 97 -13 72 -4 86 -2 125 19 65 35 91 89 91
187 l0 76 -291 259 c-272 243 -290 261 -287 290 3 26 7 31 33 34 27 2 64 -28
324 -261 267 -240 298 -265 343 -276 166 -38 263 15 256 139 -8 117 -83 211
-338 420 -85 70 -245 203 -355 296 -389 327 -620 520 -649 542 -21 16 -42 22
-80 22 -122 -1 -215 -85 -324 -297 -81 -156 -119 -206 -189 -251 -106 -67
-231 -89 -302 -53 -84 43 -98 126 -42 246 53 113 61 143 71 263 8 95 14 125
40 180 17 37 38 75 47 84 9 10 14 20 12 21 -2 2 -122 -31 -267 -73z"/>
</g>
</svg>
