<svg fill="white" id="Layer_1" enable-background="new 0 0 64 64" height="512" viewBox="0 0 64 64" width="512" xmlns="http://www.w3.org/2000/svg"><path clip-rule="evenodd" d="m58.8 13.9c-.1-1.4-1.1-2.5-2.5-2.9l-3-.7c-4.6-1.1-9-2.8-13.2-4.8l-6.1-3.1c-.8-.4-1.7-.4-2.5-.1l-9.3 4c-3.5 1.5-7.2 2.7-10.9 3.7l-3.8 1c-1.4.4-2.3 1.5-2.4 2.9-1.2 15.5 5.3 30.5 17.4 40.1l9.6 7.7c.4.3.9.3 1.3 0l8.8-7.3c11.9-9.9 18.1-25.1 16.6-40.5zm-16.4 18.3-9.8 9.8-9.8-9.8c-2.7-2.7-2.7-7.1 0-9.8s7.1-2.7 9.8 0c2.7-2.7 7.1-2.7 9.8 0 2.7 2.8 2.7 7.1 0 9.8z" fill-rule="evenodd"/></svg>