<?xml version="1.0" encoding="UTF-8"?>
<svg fill="white" xmlns="http://www.w3.org/2000/svg" id="Icons" viewBox="0 0 60 60" width="512" height="512"><path d="M47.8,18A11,11,0,1,0,26.2,18Z"/><path d="M58,42V36a1,1,0,0,0-1-1H51a4,4,0,0,0,0,8h6A1,1,0,0,0,58,42Z"/><path d="M29.764,5.205A10.989,10.989,0,0,0,12.219,18H24.171A13.06,13.06,0,0,1,24,16,12.949,12.949,0,0,1,29.764,5.205Z"/><path d="M55,18V11a1,1,0,0,0-1-1H48.533A12.917,12.917,0,0,1,50,16a13.06,13.06,0,0,1-.171,2Z"/><circle cx="15" cy="27" r="2"/><circle cx="23" cy="39" r="2"/><path d="M10.132,46.72A2.013,2.013,0,0,0,8.59,46H2v8a4,4,0,0,0,4,4H55a1,1,0,0,0,1-1V45H51a6,6,0,0,1,0-12h5V21a1,1,0,0,0-1-1H6.21A6.342,6.342,0,0,1,2,18.4V32H8.59a2.016,2.016,0,0,0,1.545-.723l1.623-1.952A4.062,4.062,0,1,1,13.3,30.6L11.669,32.56A4.009,4.009,0,0,1,8.59,34H2v4H19.142a4,4,0,1,1,0,2H2v4H8.59a4,4,0,0,1,3.076,1.438L13.3,47.4A3.952,3.952,0,0,1,15,47a4.027,4.027,0,1,1-3.242,1.675Z"/><circle cx="15" cy="51" r="2"/><path d="M2,14.01a3.076,3.076,0,0,0,.012.359A4.157,4.157,0,0,0,6.21,18H9.994a12.885,12.885,0,0,1-.631-8H6a4.016,4.016,0,0,0-4,4Z"/></svg>
